<svg version="1.1" id="Layer_1" xmlns="http://www.w3.org/2000/svg" xmlns:xlink="http://www.w3.org/1999/xlink" x="0px" y="0px"
	 width="100%" viewBox="0 0 602 222" enable-background="new 0 0 602 222" xml:space="preserve">
<path fill="#FFFEFF" opacity="1.000000" stroke="none" 
	d="
M422.000000,223.000000 
	C281.375854,223.000000 141.251694,223.000000 1.063775,223.000000 
	C1.063775,149.065018 1.063775,75.129951 1.063775,1.097444 
	C201.666641,1.097444 402.333313,1.097444 602.972534,1.097444 
	C602.972534,75.081573 602.972534,149.040802 602.972534,223.000000 
	C542.796692,223.000000 482.648346,223.000000 422.000000,223.000000 
M100.626282,69.253639 
	C95.044456,68.691452 89.428253,67.912682 83.843094,71.899765 
	C68.977753,78.250824 54.112411,84.601875 39.247070,90.952934 
	C55.889271,87.721466 70.973083,80.407059 86.760811,72.835052 
	C91.782433,72.202499 96.804047,71.569946 102.388924,70.979408 
	C102.577179,70.981888 102.765427,70.984375 103.159210,71.739395 
	C116.706078,74.870003 130.252945,78.000618 144.149368,81.212013 
	C143.155411,82.058876 142.460754,82.650742 140.962418,83.531357 
	C134.397812,83.421364 127.833191,83.311378 120.473518,83.010162 
	C112.640625,82.548531 104.810913,81.990845 96.971329,81.732040 
	C95.835899,81.694557 94.224609,82.846611 93.626083,83.898964 
	C93.135399,84.761711 93.513329,87.168739 94.050728,87.359818 
	C95.409096,87.842819 97.159386,87.768044 98.598770,87.365898 
	C101.637787,86.516861 104.522072,84.680847 107.572868,84.409897 
	C112.006050,84.016190 116.530251,84.647141 121.793884,84.999596 
	C125.500114,85.347000 129.206345,85.694405 133.604218,86.264168 
	C133.735504,86.934082 134.203018,87.991356 133.946243,88.214226 
	C131.254654,90.550583 128.447128,92.753365 125.013214,95.100327 
	C124.290535,96.057129 123.567856,97.013931 122.845177,97.970726 
	C123.305794,98.292847 123.766411,98.614967 124.227036,98.937096 
	C124.797157,98.059921 125.367287,97.182755 126.672852,96.109428 
	C127.157356,97.077415 127.641861,98.045395 127.958679,99.926674 
	C127.701881,106.513313 126.859222,113.142998 127.339294,119.675484 
	C127.915634,127.517746 124.823692,132.896912 117.895683,137.152496 
	C116.851967,137.863525 115.808258,138.574554 114.764549,139.285583 
	C115.093369,139.657211 115.422188,140.028854 115.751007,140.400482 
	C116.697754,139.265945 117.644493,138.131409 119.035492,137.060440 
	C123.233864,136.422958 129.107803,131.804382 129.188705,128.806747 
	C129.456589,118.880569 129.591492,108.950806 129.962753,98.227623 
	C128.784164,92.925056 133.803726,91.775887 136.861115,88.623459 
	C137.614029,88.247711 138.366943,87.871956 139.657959,87.227661 
	C139.657959,93.101387 139.657959,98.338661 139.657959,103.575935 
	C140.033432,103.575775 140.408905,103.575615 140.784378,103.575455 
	C141.200165,97.408226 141.615936,91.240997 142.735184,84.941498 
	C144.600128,83.793839 146.465057,82.646187 149.397705,80.841476 
	C146.832947,79.833290 145.573288,79.162048 144.229874,78.838509 
	C135.241547,76.673866 126.265190,74.442383 117.222076,72.529892 
	C112.886810,71.613052 108.414261,71.345375 103.836624,70.100700 
	C103.034599,69.792198 102.232567,69.483688 100.626282,69.253639 
M310.192932,140.187912 
	C310.192932,140.187912 310.497772,140.443527 310.622559,141.063965 
	C311.080902,141.828781 311.539215,142.593597 311.997528,143.358414 
	C312.299316,143.187729 312.601105,143.017044 312.902893,142.846359 
	C312.902893,139.304825 312.902893,135.763306 312.902893,131.331833 
	C311.214508,132.522934 310.133209,133.285751 309.050995,134.049225 
	C308.050629,133.326141 306.974487,132.548309 305.335205,131.363434 
	C305.335205,135.847916 305.335205,139.475281 305.335205,143.669373 
	C307.185760,142.147720 308.549561,141.026306 310.192932,140.187912 
M102.644981,112.805878 
	C100.464218,112.684288 98.117577,113.043961 96.130936,112.359192 
	C86.690010,109.105080 77.347145,105.566498 67.273361,101.847275 
	C57.263798,98.774467 47.254230,95.701653 37.107891,92.150703 
	C36.862198,92.015213 36.616505,91.879723 36.370811,91.744225 
	C36.503532,92.149071 36.636257,92.553909 36.775375,93.682083 
	C36.619892,93.939674 36.433094,94.184830 36.323570,94.460670 
	C36.276470,94.579285 36.357407,94.876823 36.434612,94.898422 
	C41.490204,96.312454 46.529377,97.794388 51.620384,99.069107 
	C54.638054,99.824707 55.869335,101.358597 55.801590,104.615013 
	C55.643127,112.231926 55.761105,119.861511 56.045994,127.475525 
	C56.111481,129.225815 56.825993,131.495865 58.069839,132.545074 
	C60.679562,134.746460 63.839371,136.295700 67.166344,138.684799 
	C75.059441,143.300308 83.115135,147.196320 92.639435,144.668900 
	C83.597473,144.799744 75.686394,141.258682 67.471809,136.605469 
	C66.221878,135.793610 65.058601,134.775757 63.706429,134.206940 
	C58.870880,132.172775 57.722446,128.628830 57.936695,123.563011 
	C58.237682,116.446609 57.567364,109.289131 58.490341,101.984810 
	C58.881542,101.920601 59.272743,101.856392 60.373672,101.738907 
	C62.465244,102.216042 64.556816,102.693184 67.183113,103.696655 
	C76.603668,107.329178 86.017860,110.978325 95.448509,114.584442 
	C98.416229,115.719261 101.538841,117.256393 104.061409,112.964043 
	C105.781876,111.835854 107.502342,110.707672 109.222809,109.579491 
	C108.746536,108.972969 108.270271,108.366440 107.793999,107.759918 
	C106.284340,109.195984 104.774673,110.632057 102.644981,112.805878 
M330.688416,98.155914 
	C330.688416,98.155914 330.909882,98.053291 331.832397,98.015305 
	C334.263672,98.015305 336.694946,98.015305 339.127777,98.015305 
	C339.331604,100.634209 339.484009,102.592758 339.653290,104.767685 
	C341.781952,104.767685 343.684021,104.767685 346.030670,104.767685 
	C346.030670,101.098701 345.919678,97.632248 346.049805,94.174866 
	C346.623474,78.932968 345.093201,79.392273 330.519958,79.944237 
	C330.519958,79.944237 330.047150,79.975761 329.265076,79.857162 
	C327.483765,81.324814 324.300018,82.674446 324.164856,84.280624 
	C323.590912,91.100952 323.921173,97.997383 323.921173,104.737488 
	C326.402710,104.737488 328.168152,104.737488 330.070801,104.737488 
	C330.206848,102.354485 330.328094,100.230515 330.688416,98.155914 
M539.199585,79.867752 
	C537.387756,81.311241 534.146545,82.633354 534.011841,84.219254 
	C533.432129,91.046837 533.764160,97.951836 533.764160,104.715294 
	C536.268799,104.715294 538.027710,104.715294 539.921753,104.715294 
	C540.036377,102.300453 540.137573,100.167976 540.697449,98.009651 
	C540.697449,98.009651 541.148865,97.924629 542.034729,97.975204 
	C544.301208,97.975204 546.567688,97.975204 548.844177,97.975204 
	C549.096558,100.701973 549.288025,102.770607 549.462402,104.655106 
	C551.821594,104.655106 553.725037,104.655106 555.926270,104.655106 
	C555.926270,100.827751 555.791809,97.351540 555.949524,93.888649 
	C556.638184,78.770325 554.253845,79.342911 540.536499,80.014565 
	C540.350159,80.013069 540.163879,80.011574 539.199585,79.867752 
M362.921204,104.965698 
	C366.518616,104.965698 370.116058,104.965698 374.011169,104.965698 
	C373.898041,103.039001 373.816681,101.653320 373.733459,100.236305 
	C369.581329,100.236305 365.799072,100.236305 361.250671,99.760170 
	C361.250671,93.209572 361.250671,86.658974 361.250671,79.967278 
	C358.275299,79.967278 356.349609,79.967278 354.042053,79.967278 
	C354.042053,86.006439 354.015076,91.788208 354.049774,97.569618 
	C354.083496,103.188515 356.237671,105.106628 362.921204,104.965698 
M242.300446,79.784271 
	C240.391556,79.784271 238.482666,79.784271 236.713684,79.784271 
	C236.713684,88.618889 236.713684,96.683174 236.713684,104.725548 
	C238.972351,104.725548 240.883362,104.725548 243.208084,104.725548 
	C243.208084,101.954491 243.208084,99.487839 243.873413,96.909828 
	C244.089233,96.846664 244.305038,96.783493 245.261429,96.594765 
	C247.052261,98.014259 249.472809,99.082970 250.500381,100.927635 
	C252.522980,104.558556 254.903473,106.084038 259.698334,104.238922 
	C258.458557,101.590782 257.247498,99.003998 255.901062,96.128029 
	C260.276733,92.758690 260.253754,87.680443 258.572266,83.238564 
	C256.726135,78.361679 251.573578,79.987640 247.559052,79.850433 
	C246.401962,79.810883 245.238022,79.971428 243.529907,80.019127 
	C243.347336,80.015686 243.164780,80.012253 242.300446,79.784271 
M177.438583,170.910797 
	C177.616241,170.878632 177.793884,170.846466 178.764679,170.506363 
	C178.838379,170.015961 178.976471,169.525574 178.976654,169.035141 
	C178.991013,130.835739 179.004440,92.636307 178.948608,54.436989 
	C178.947006,53.348007 178.199921,52.260109 176.967255,51.054668 
	C176.308029,52.390598 175.083374,53.722855 175.074661,55.063015 
	C174.950333,74.187393 174.990631,93.312851 174.990631,112.438042 
	C174.990646,130.565399 174.949844,148.693039 175.072510,166.819550 
	C175.081451,168.142044 176.272736,169.456528 177.438583,170.910797 
M144.675781,150.032349 
	C144.972122,150.574356 145.268478,151.116348 145.564835,151.658356 
	C146.041748,151.148590 146.916916,150.647919 146.928818,150.127518 
	C146.990860,147.413376 146.833450,144.694244 146.857224,141.138672 
	C146.516068,135.769852 146.174911,130.401047 145.977936,124.344711 
	C145.895981,123.888161 145.814026,123.431602 145.843735,122.172493 
	C144.220657,117.659134 142.597565,113.145782 140.779999,108.091606 
	C132.476456,115.815971 134.411407,131.056671 134.074875,152.554153 
	C135.042160,152.768570 136.011169,152.983383 136.956940,153.008621 
	C136.956940,153.008621 137.086349,153.175018 137.086349,153.175018 
	C137.086349,153.175018 136.875885,153.108292 136.184219,152.350082 
	C136.224945,149.213043 137.837982,148.074112 139.915329,150.540604 
	C142.245728,153.307526 142.799149,150.756760 144.675781,150.032349 
M480.377289,103.913315 
	C480.377289,101.138481 480.377289,98.363647 480.377289,95.408585 
	C483.638855,95.408585 486.223480,95.408585 489.214081,95.408585 
	C489.395111,98.668983 489.563934,101.709610 489.726105,104.629845 
	C492.080780,104.629845 493.963440,104.629845 495.738831,104.629845 
	C495.738831,96.192421 495.738831,88.128777 495.738831,80.055542 
	C493.611053,80.055542 491.816925,80.055542 489.750763,80.055542 
	C489.562164,83.305786 489.384552,86.366676 489.196899,89.601013 
	C486.142761,89.601013 483.557037,89.601013 480.746552,89.601013 
	C480.573242,86.306625 480.411865,83.238533 480.253387,80.226074 
	C477.936951,80.226074 476.061249,80.226074 474.219971,80.226074 
	C474.219971,88.665977 474.219971,96.720047 474.219971,105.061150 
	C476.355927,104.918312 478.149933,104.798340 480.377289,103.913315 
M198.932800,91.335136 
	C198.081970,88.998047 196.915909,86.722145 196.447845,84.310760 
	C195.554001,79.705872 192.940826,78.903473 187.735275,80.597122 
	C190.815430,88.131645 193.416122,95.749855 197.035278,102.848831 
	C199.029343,106.760162 203.553513,105.869606 205.213943,101.802803 
	C206.154022,99.500351 207.056686,97.181267 207.916260,94.847595 
	C209.663330,90.104469 211.369720,85.346359 213.106476,80.556915 
	C208.159775,78.826500 205.744965,79.813576 204.681259,84.330254 
	C203.827255,87.956512 202.155090,91.390106 200.617264,95.523972 
	C199.911163,93.890556 199.518188,92.981491 198.932800,91.335136 
M401.444397,98.152527 
	C401.733215,98.930267 401.967163,99.733978 402.320923,100.480949 
	C403.495453,102.961067 404.739136,104.993698 408.141022,105.124207 
	C411.878479,105.267586 411.869019,102.453476 412.770813,100.360817 
	C414.017212,97.468590 415.036530,94.476273 416.097626,91.506996 
	C417.402466,87.855728 418.650116,84.184029 419.929016,80.502304 
	C414.923584,78.707840 412.655823,80.030319 411.587708,84.411827 
	C410.711426,88.006439 409.087402,91.418770 407.501495,95.704681 
	C405.360718,89.860886 403.542145,84.896545 401.793762,80.123901 
	C399.596924,80.123901 397.708954,80.123901 394.852051,80.123901 
	C397.103882,86.318741 399.124390,91.877213 401.444397,98.152527 
M506.191925,79.732262 
	C500.927521,79.626732 502.913025,82.452690 504.213104,84.815277 
	C507.667633,91.093163 513.869019,96.265892 511.399994,104.707657 
	C513.969604,104.707657 515.872803,104.707657 518.327881,104.707657 
	C515.580200,94.548897 525.335876,89.056259 526.990051,80.502235 
	C518.030334,77.251259 519.179749,86.895493 514.633667,89.419960 
	C513.669189,87.854355 512.879578,86.216110 511.761566,84.845825 
	C510.285767,83.037033 508.552338,81.438416 506.191925,79.732262 
M457.498535,85.715263 
	C458.201294,90.118729 458.904022,94.522186 459.630829,99.076279 
	C456.022217,99.307945 453.736633,99.454681 451.224426,99.615959 
	C451.224426,101.431419 451.224426,102.998894 451.224426,104.538261 
	C459.770813,105.748131 464.222900,105.324356 464.786255,101.827408 
	C465.781860,95.647148 466.499786,88.727585 464.653625,82.978081 
	C462.781281,77.146980 456.063171,80.371521 451.319336,79.735146 
	C451.319336,81.843430 451.319336,83.560509 451.319336,85.660072 
	C453.298981,85.660072 454.935883,85.660072 457.498535,85.715263 
M280.449097,79.730499 
	C278.040894,79.730499 275.632690,79.730499 273.238831,79.730499 
	C273.238831,88.491280 273.238831,96.560303 273.238831,104.797836 
	C275.402710,104.797836 277.312225,104.797836 279.826630,104.797836 
	C279.826630,98.378174 279.826630,92.159958 279.826630,85.908081 
	C282.528442,85.686249 284.632263,85.513519 286.886810,85.328407 
	C286.886810,83.433167 286.886810,81.820885 286.886810,79.731667 
	C284.918304,79.731667 283.136841,79.731667 280.449097,79.730499 
M429.781799,79.736893 
	C426.991608,79.501900 424.070465,79.929832 425.635559,83.533257 
	C428.336182,89.751068 428.323792,95.608391 425.503357,101.677391 
	C425.118256,102.506020 425.734619,103.800056 425.875519,104.795502 
	C429.375641,104.795502 432.498749,104.795502 436.577850,104.795502 
	C432.942902,96.410225 433.298615,88.235573 436.588806,79.737831 
	C433.924896,79.737831 432.272797,79.737831 429.781799,79.736893 
M301.859711,104.920921 
	C304.519226,104.956123 307.470581,105.728180 309.757385,104.822411 
	C312.115417,103.888412 315.300537,101.496605 315.545868,99.435707 
	C316.300110,93.100403 315.820648,86.618217 315.820648,79.962410 
	C313.339600,79.962410 311.410492,79.962410 309.009888,79.962410 
	C309.009888,86.409515 309.009888,92.652443 309.009888,99.066429 
	C306.135681,99.290764 303.713318,99.479843 301.139191,99.680756 
	C301.139191,101.425583 301.139191,102.900642 301.859711,104.920921 
M219.263245,104.828590 
	C222.393066,104.828590 225.522873,104.828590 229.629242,104.828590 
	C226.005920,96.470970 226.274185,88.332008 229.403503,80.193466 
	C225.239349,80.193466 222.010178,80.193466 218.461578,80.193466 
	C219.251526,83.800949 220.567276,87.010025 220.506439,90.192795 
	C220.416809,94.882126 219.346176,99.552711 219.263245,104.828590 
M444.228058,79.934349 
	C443.802826,88.203354 443.377594,96.472359 442.956787,104.655540 
	C446.032471,104.655540 447.925537,104.655540 449.747620,104.655540 
	C449.747620,96.201004 449.747620,88.124954 449.747620,79.748535 
	C447.975494,79.748535 446.500702,79.748535 444.228058,79.934349 
M300.004700,81.163963 
	C297.943420,80.571014 295.882141,79.978058 293.283539,79.230537 
	C293.283539,86.563004 293.179565,92.686592 293.321259,98.804489 
	C293.410919,102.677254 295.772064,104.539299 300.027344,105.181244 
	C300.027344,97.189720 300.027344,89.612968 300.004700,81.163963 
M219.292358,132.307770 
	C216.678497,132.522385 214.064636,132.737000 211.136780,132.977386 
	C211.623383,135.902222 212.211578,139.437729 212.798920,142.968048 
	C215.211655,142.968048 217.242554,142.968048 220.043228,142.968048 
	C220.043228,139.195786 220.043228,135.640274 219.292358,132.307770 
M403.599060,131.914688 
	C402.649597,132.746704 401.007935,133.485794 400.881409,134.428299 
	C400.512970,137.172958 400.750641,139.998978 400.750641,144.323410 
	C403.385468,143.156693 406.322388,142.791321 407.385529,141.185440 
	C409.425995,138.103470 407.462372,133.265060 403.599060,131.914688 
M264.002838,132.445358 
	C262.140747,132.297836 260.278656,132.150314 258.301208,131.993652 
	C258.301208,136.037933 258.301208,139.446381 258.301208,142.825150 
	C264.733124,143.856888 265.126892,143.558411 265.060028,137.474945 
	C265.043915,136.008743 264.780914,134.545273 264.002838,132.445358 
M395.719910,137.383667 
	C395.719910,135.661850 395.719910,133.940048 395.719910,132.218231 
	C395.013031,131.689911 394.306122,131.161591 393.599243,130.633255 
	C392.981995,131.554428 392.364716,132.475586 391.744995,133.400436 
	C391.737122,133.394485 390.625885,132.554077 388.987122,131.314713 
	C388.987122,135.909851 388.987122,139.459229 388.987122,142.666595 
	C391.297058,142.666595 393.320557,142.666595 395.719757,142.666595 
	C395.719757,141.159073 395.719757,139.694122 395.719910,137.383667 
M279.397308,143.351593 
	C286.162567,142.597488 281.272705,137.202438 282.952454,134.423340 
	C281.033661,133.400589 279.114838,132.377838 276.456757,130.961044 
	C276.456757,135.420776 276.290741,138.212250 276.555389,140.962280 
	C276.637451,141.815201 277.888672,142.555603 279.397308,143.351593 
M238.897202,139.928574 
	C239.013214,139.809174 239.113297,139.663208 239.251282,139.580444 
	C239.332169,139.531937 239.548691,139.544296 239.576553,139.596909 
	C240.256531,140.880173 240.919312,142.172531 241.585190,143.463257 
	C242.011536,143.254990 242.437881,143.046738 242.864243,142.838470 
	C242.742599,141.250336 242.399017,139.642456 242.538376,138.077560 
	C243.092026,131.860443 242.235641,131.087601 236.310516,132.727844 
	C236.310516,136.180115 236.310516,139.610840 236.310516,143.041550 
	C236.683640,143.185776 237.056747,143.330002 237.429871,143.474228 
	C237.887802,142.536911 238.345718,141.599594 238.897202,139.928574 
M324.328369,133.329193 
	C322.144928,131.362900 319.200623,130.810669 318.408203,133.770096 
	C317.664612,136.547058 318.116302,140.515778 319.719360,142.764099 
	C320.927368,144.458298 324.528351,143.673203 324.747528,140.025604 
	C324.865479,138.062347 324.694122,136.081726 324.328369,133.329193 
M447.005859,137.673096 
	C447.005859,139.434616 447.005859,141.196136 447.005859,143.015015 
	C449.274353,143.015015 451.185150,143.015015 453.055969,143.015015 
	C453.055969,141.061417 452.924591,139.313324 453.080292,137.591202 
	C453.576660,132.101456 453.005127,131.588348 447.005035,132.515793 
	C447.005035,133.955521 447.005035,135.400452 447.005859,137.673096 
M205.694901,142.805084 
	C206.056076,139.939407 206.588593,137.077866 206.657730,134.205170 
	C206.674988,133.488358 205.275864,132.262924 204.388519,132.116821 
	C203.231812,131.926376 200.951859,132.402054 200.863022,132.897385 
	C200.349792,135.758987 200.028946,138.749680 200.385330,141.603943 
	C200.470825,142.288635 203.373932,142.621506 205.694901,142.805084 
M363.301758,141.544464 
	C365.237732,144.068207 368.430237,144.341537 369.239166,141.816803 
	C370.139984,139.005280 369.627747,134.923050 368.068024,132.437180 
	C367.076904,130.857483 363.270691,131.602402 363.119965,135.308182 
	C363.046326,137.118225 363.127136,138.934555 363.301758,141.544464 
M355.822510,143.157471 
	C356.653595,142.423340 358.151001,141.727570 358.195892,140.948166 
	C358.356934,138.151779 358.026764,135.327118 357.872833,132.330017 
	C356.165039,132.330017 354.009979,132.330017 351.740997,132.330017 
	C351.740997,135.250092 352.217407,137.987900 351.634399,140.477646 
	C350.647675,144.691422 352.567719,144.095215 355.822510,143.157471 
M480.738464,143.220917 
	C481.149536,140.681046 481.686737,138.152267 481.911102,135.596024 
	C482.003815,134.539124 481.663574,132.663895 481.104645,132.488937 
	C479.855255,132.097870 477.207306,132.293762 477.122559,132.683746 
	C476.505280,135.524551 476.096497,138.492386 476.294434,141.373871 
	C476.347046,142.139603 478.741608,142.744431 480.738464,143.220917 
M424.535797,139.894684 
	C425.346924,141.097824 426.158081,142.300980 426.969208,143.504120 
	C428.194275,142.629791 430.237885,141.933228 430.474365,140.844208 
	C430.970428,138.559967 430.775604,136.016663 430.304413,133.693268 
	C430.149231,132.928085 428.176147,131.930969 427.203552,132.088013 
	C426.052460,132.273849 424.432129,133.440262 424.193207,134.458130 
	C423.853424,135.905518 424.587311,137.604919 424.535797,139.894684 
M334.376373,136.627243 
	C334.654053,135.443024 335.523529,133.841965 335.058105,133.181183 
	C334.489136,132.373428 332.650940,131.805542 331.621399,132.086380 
	C326.368408,133.519379 331.250702,137.923111 329.464722,140.562271 
	C329.308136,140.793640 331.013275,142.987289 332.075653,143.209839 
	C335.303131,143.885956 336.359009,141.433258 334.376373,136.627243 
M419.126709,136.034073 
	C418.922577,134.659836 418.718475,133.285599 418.514343,131.911377 
	C418.014709,132.021133 417.515045,132.130905 417.015381,132.240662 
	C416.848999,135.073761 416.682617,137.906860 416.516235,140.739960 
	C416.041351,140.714523 415.566437,140.689087 415.091522,140.663651 
	C414.948792,137.823334 414.806030,134.983032 414.663300,132.142715 
	C414.046051,132.070084 413.428833,131.997467 412.811615,131.924835 
	C412.618195,134.591873 412.101227,137.292313 412.371582,139.911484 
	C412.501373,141.169250 414.088013,143.188797 415.070435,143.222015 
	C416.381348,143.266357 418.112305,141.971909 418.966675,140.761200 
	C419.596252,139.869049 419.110962,138.190186 419.126709,136.034073 
M195.026642,133.233002 
	C193.036972,132.729706 191.047302,132.226410 189.436920,131.819061 
	C189.436920,136.243057 189.436920,139.770126 189.436920,144.532745 
	C191.074402,141.986023 192.005295,140.723434 192.736740,139.354309 
	C193.675247,137.597610 194.453430,135.755295 195.026642,133.233002 
M343.539825,131.975433 
	C339.435150,134.833878 341.911499,139.478012 340.765564,143.368332 
	C341.794128,142.544662 342.822662,141.721008 343.802002,140.936752 
	C344.834656,141.834290 345.639221,142.533554 346.443787,143.232834 
	C346.838379,143.020187 347.232941,142.807526 347.627533,142.594879 
	C346.545380,139.064392 345.463226,135.533890 343.539825,131.975433 
M471.367737,133.511536 
	C469.572784,132.871384 467.777832,132.231216 465.635498,131.467163 
	C465.635498,136.042511 465.635498,139.460403 465.635498,143.526245 
	C467.789062,143.287628 469.626648,143.084030 471.464264,142.880417 
	C471.469421,142.500336 471.474609,142.120239 471.479797,141.740143 
	C470.334991,141.183990 469.190186,140.627823 467.835907,139.969894 
	C469.064514,138.998352 469.907227,138.331970 470.903534,137.544128 
	C469.776031,136.557800 468.897247,135.789047 467.532654,134.595322 
	C469.147095,134.324387 470.058990,134.171341 471.367737,133.511536 
M228.943863,134.127792 
	C229.788834,133.875443 230.633789,133.623077 231.478760,133.370728 
	C231.403687,133.018784 231.328613,132.666824 231.253540,132.314880 
	C229.434174,132.314880 227.614807,132.314880 225.775513,132.314880 
	C225.775513,135.999435 225.775513,139.407425 225.775513,143.389297 
	C227.834152,143.134109 229.630051,142.911499 231.425964,142.688873 
	C231.389740,142.364456 231.353531,142.040024 231.317322,141.715607 
	C230.179810,141.172577 229.042297,140.629562 227.494781,139.890808 
	C228.863708,138.899734 229.720840,138.279190 230.273270,137.879257 
	C229.526276,136.525162 228.919189,135.424683 228.943863,134.127792 
M247.926270,137.463226 
	C247.926270,139.239838 247.926270,141.016434 247.926270,143.350311 
	C249.845444,143.123367 251.639755,142.911194 253.434067,142.699005 
	C253.402359,142.373154 253.370667,142.047287 253.338959,141.721436 
	C252.198456,141.190353 251.057938,140.659271 249.444611,139.908020 
	C250.856125,138.921646 251.728699,138.311874 252.750626,137.597733 
	C251.678192,136.690536 250.778519,135.929474 249.603577,134.935577 
	C251.203064,134.288498 252.375717,133.814102 253.548370,133.339691 
	C253.509781,132.962296 253.471207,132.584915 253.432617,132.207520 
	C251.639816,132.128983 249.847015,132.050430 247.925735,131.966263 
	C247.925735,133.801804 247.925735,135.236023 247.926270,137.463226 
M440.872192,134.600876 
	C440.729156,133.727768 440.681305,132.131744 440.427734,132.098358 
	C438.723724,131.873993 436.976044,131.981567 435.801086,131.981567 
	C436.516479,136.134583 437.123138,139.656265 437.975311,144.603302 
	C438.987701,142.776016 439.729584,141.975906 439.863678,141.084366 
	C440.155914,139.141541 440.138672,137.152176 440.872192,134.600876 
M265.532104,82.625481 
	C265.649963,88.015938 269.326538,84.832657 271.739838,85.571152 
	C271.739838,83.430801 271.739838,81.736153 271.739838,78.554352 
	C269.152283,79.938408 267.346375,80.904381 265.532104,82.625481 
M293.137268,135.021179 
	C293.304260,134.095261 293.471222,133.169327 293.638214,132.243408 
	C293.354034,132.137680 293.069855,132.031967 292.785675,131.926239 
	C292.007446,132.812485 291.229248,133.698746 290.935760,134.032990 
	C290.251862,133.016022 289.593719,132.037384 288.935608,131.058731 
	C288.403870,131.514572 287.872131,131.970428 287.340393,132.426270 
	C288.331665,136.070618 289.322937,139.714966 290.314209,143.359314 
	C290.694000,143.204208 291.073792,143.049118 291.453583,142.894012 
	C291.940308,140.518555 292.427002,138.143112 293.137268,135.021179 
M458.598724,132.244537 
	C458.391571,135.886765 458.184387,139.528976 457.955597,143.551849 
	C461.280914,141.908310 461.720123,135.591827 458.598724,132.244537 
M381.211823,142.607040 
	C382.140778,142.374481 383.860779,142.188553 383.877625,141.902222 
	C384.068634,138.662827 383.998718,135.408051 383.998718,132.157394 
	C383.488251,132.090256 382.977783,132.023132 382.467285,131.955994 
	C379.745300,134.699265 382.042328,138.626923 381.211823,142.607040 
M111.847824,141.588348 
	C110.276611,141.588348 108.705399,141.588348 107.134193,141.588348 
	C107.268074,142.338776 107.401955,143.089188 107.535828,143.839615 
	C108.912407,143.317383 110.288979,142.795166 111.847824,141.588348 
M99.344673,145.886551 
	C100.165421,143.409103 100.024803,143.317047 96.026253,144.132858 
	C97.118576,144.811859 97.905869,145.301239 99.344673,145.886551 
M112.874817,106.509933 
	C112.477699,106.160248 112.080582,105.810562 111.683472,105.460869 
	C111.541260,106.012604 111.399048,106.564339 111.256828,107.116074 
	C111.755142,107.116959 112.253464,107.117844 112.874817,106.509933 
M139.460587,108.607315 
	C140.044022,107.337654 140.627441,106.067986 141.210876,104.798325 
	C140.654053,104.635277 140.097229,104.472237 139.540405,104.309196 
	C139.371262,105.406776 139.202133,106.504364 139.460587,108.607315 
M116.741730,102.895134 
	C116.244850,102.894379 115.747978,102.893623 115.251099,102.892868 
	C115.398346,103.442215 115.545593,103.991570 115.692833,104.540916 
	C116.086517,104.194885 116.480209,103.848862 116.741730,102.895134 
M119.124847,100.487762 
	C119.520782,100.836182 119.916710,101.184601 120.312637,101.533028 
	C120.454544,100.982529 120.596458,100.432022 120.738373,99.881523 
	C120.241692,99.881111 119.745003,99.880699 119.124847,100.487762 
z"/>
<path fill="#0E0E0E" opacity="1.000000" stroke="none" 
	d="
M136.980194,153.198181 
	C136.011169,152.983383 135.042160,152.768570 134.074875,152.554153 
	C134.411407,131.056671 132.476456,115.815971 140.779999,108.091606 
	C142.597565,113.145782 144.220657,117.659134 145.448853,122.564392 
	C144.136795,122.859787 143.219650,122.763275 141.295776,122.560822 
	C142.494308,124.613152 143.318192,126.023949 144.315567,127.731834 
	C145.063873,126.401199 145.448807,125.716713 145.833740,125.032227 
	C146.174911,130.401047 146.516068,135.769852 146.515442,141.588776 
	C145.734299,142.387772 145.294922,142.736664 144.582626,143.206879 
	C144.262039,144.120987 144.214355,144.913742 144.100754,146.048447 
	C144.029465,147.536743 144.024094,148.683090 144.018738,149.829437 
	C142.799149,150.756760 142.245728,153.307526 139.915329,150.540604 
	C137.837982,148.074112 136.224945,149.213043 136.565613,152.740662 
	C136.947006,153.131241 136.980194,153.198196 136.980194,153.198181 
z"/>
<path fill="#D001FF" opacity="1.000000" stroke="none" 
	d="
M480.160614,104.295845 
	C478.149933,104.798340 476.355927,104.918312 474.219971,105.061150 
	C474.219971,96.720047 474.219971,88.665977 474.219971,80.226074 
	C476.061249,80.226074 477.936951,80.226074 480.253387,80.226074 
	C480.411865,83.238533 480.573242,86.306625 480.746552,89.601013 
	C483.557037,89.601013 486.142761,89.601013 489.196899,89.601013 
	C489.384552,86.366676 489.562164,83.305786 489.750763,80.055542 
	C491.816925,80.055542 493.611053,80.055542 495.738831,80.055542 
	C495.738831,88.128777 495.738831,96.192421 495.738831,104.629845 
	C493.963440,104.629845 492.080780,104.629845 489.726105,104.629845 
	C489.563934,101.709610 489.395111,98.668983 489.214081,95.408585 
	C486.223480,95.408585 483.638855,95.408585 480.377289,95.408585 
	C480.377289,98.363647 480.377289,101.138481 480.160614,104.295845 
z"/>
<path fill="#8707FF" opacity="1.000000" stroke="none" 
	d="
M199.029007,91.703781 
	C199.518188,92.981491 199.911163,93.890556 200.617264,95.523972 
	C202.155090,91.390106 203.827255,87.956512 204.681259,84.330254 
	C205.744965,79.813576 208.159775,78.826500 213.106476,80.556915 
	C211.369720,85.346359 209.663330,90.104469 207.916260,94.847595 
	C207.056686,97.181267 206.154022,99.500351 205.213943,101.802803 
	C203.553513,105.869606 199.029343,106.760162 197.035278,102.848831 
	C193.416122,95.749855 190.815430,88.131645 187.735275,80.597122 
	C192.940826,78.903473 195.554001,79.705872 196.447845,84.310760 
	C196.915909,86.722145 198.081970,88.998047 199.029007,91.703781 
z"/>
<path fill="#BD08FF" opacity="1.000000" stroke="none" 
	d="
M401.294647,97.794106 
	C399.124390,91.877213 397.103882,86.318741 394.852051,80.123901 
	C397.708954,80.123901 399.596924,80.123901 401.793762,80.123901 
	C403.542145,84.896545 405.360718,89.860886 407.501495,95.704681 
	C409.087402,91.418770 410.711426,88.006439 411.587708,84.411827 
	C412.655823,80.030319 414.923584,78.707840 419.929016,80.502304 
	C418.650116,84.184029 417.402466,87.855728 416.097626,91.506996 
	C415.036530,94.476273 414.017212,97.468590 412.770813,100.360817 
	C411.869019,102.453476 411.878479,105.267586 408.141022,105.124207 
	C404.739136,104.993698 403.495453,102.961067 402.320923,100.480949 
	C401.967163,99.733978 401.733215,98.930267 401.294647,97.794106 
z"/>
<path fill="#D807FF" opacity="1.000000" stroke="none" 
	d="
M506.560791,79.740860 
	C508.552338,81.438416 510.285767,83.037033 511.761566,84.845825 
	C512.879578,86.216110 513.669189,87.854355 514.633667,89.419960 
	C519.179749,86.895493 518.030334,77.251259 526.990051,80.502235 
	C525.335876,89.056259 515.580200,94.548897 518.327881,104.707657 
	C515.872803,104.707657 513.969604,104.707657 511.399994,104.707657 
	C513.869019,96.265892 507.667633,91.093163 504.213104,84.815277 
	C502.913025,82.452690 500.927521,79.626732 506.560791,79.740860 
z"/>
<path fill="#CB11FF" opacity="1.000000" stroke="none" 
	d="
M457.035645,85.687668 
	C454.935883,85.660072 453.298981,85.660072 451.319336,85.660072 
	C451.319336,83.560509 451.319336,81.843430 451.319336,79.735146 
	C456.063171,80.371521 462.781281,77.146980 464.653625,82.978081 
	C466.499786,88.727585 465.781860,95.647148 464.786255,101.827408 
	C464.222900,105.324356 459.770813,105.748131 451.224426,104.538261 
	C451.224426,102.998894 451.224426,101.431419 451.224426,99.615959 
	C453.736633,99.454681 456.022217,99.307945 459.630829,99.076279 
	C458.904022,94.522186 458.201294,90.118729 457.035645,85.687668 
z"/>
<path fill="#E10AFF" opacity="1.000000" stroke="none" 
	d="
M541.094604,80.044884 
	C554.253845,79.342911 556.638184,78.770325 555.949524,93.888649 
	C555.791809,97.351540 555.926270,100.827751 555.926270,104.655106 
	C553.725037,104.655106 551.821594,104.655106 549.462402,104.655106 
	C549.288025,102.770607 549.096558,100.701973 548.844177,97.975204 
	C546.567688,97.975204 544.301208,97.975204 541.560669,97.516655 
	C540.036377,89.855209 546.584351,94.205170 548.853638,91.933052 
	C548.853638,89.900078 548.853638,87.834480 548.853638,85.553490 
	C546.124329,85.357567 543.722412,85.185143 541.094604,84.996506 
	C541.094604,83.008392 541.094604,81.526642 541.094604,80.044884 
z"/>
<path fill="#9103FF" opacity="1.000000" stroke="none" 
	d="
M244.077225,80.040237 
	C245.238022,79.971428 246.401962,79.810883 247.559052,79.850433 
	C251.573578,79.987640 256.726135,78.361679 258.572266,83.238564 
	C260.253754,87.680443 260.276733,92.758690 255.901062,96.128029 
	C257.247498,99.003998 258.458557,101.590782 259.698334,104.238922 
	C254.903473,106.084038 252.522980,104.558556 250.500381,100.927635 
	C249.472809,99.082970 247.052261,98.014259 244.757263,96.256264 
	C244.253082,94.373253 244.253082,92.828751 244.253082,90.875404 
	C247.350052,90.875404 249.913223,90.875404 252.543884,90.875404 
	C252.543884,88.908867 252.543884,87.366356 252.543884,85.546783 
	C249.565216,85.375305 246.878860,85.220665 244.077225,85.059380 
	C244.077225,82.989212 244.077225,81.514725 244.077225,80.040237 
z"/>
<path fill="#A904FF" opacity="1.000000" stroke="none" 
	d="
M330.991089,79.995155 
	C345.093201,79.392273 346.623474,78.932968 346.049805,94.174866 
	C345.919678,97.632248 346.030670,101.098701 346.030670,104.767685 
	C343.684021,104.767685 341.781952,104.767685 339.653290,104.767685 
	C339.484009,102.592758 339.331604,100.634209 339.127777,98.015305 
	C336.694946,98.015305 334.263672,98.015305 331.360443,97.586853 
	C330.128723,93.060265 332.420715,92.341270 335.751007,92.760056 
	C338.744324,93.136459 339.844604,91.865128 339.810455,88.819969 
	C339.777710,85.902206 338.541077,85.056717 335.885315,85.205803 
	C334.304291,85.294548 332.704193,85.043266 330.991089,84.937332 
	C330.991089,82.948845 330.991089,81.472000 330.991089,79.995155 
z"/>
<path fill="#DC1EFF" opacity="1.000000" stroke="none" 
	d="
M177.800446,51.171703 
	C178.199921,52.260109 178.947006,53.348007 178.948608,54.436989 
	C179.004440,92.636307 178.991013,130.835739 178.976654,169.035141 
	C178.976471,169.525574 178.838379,170.015961 178.370407,170.340286 
	C177.936768,169.748978 177.897385,169.323761 177.865845,168.444885 
	C177.829697,164.666336 177.858047,161.338577 177.726822,158.017120 
	C177.443130,150.837158 176.831055,143.661102 176.812500,136.482254 
	C176.792587,128.767776 177.596161,121.047913 177.491791,113.337830 
	C177.386002,105.523239 176.134933,97.711708 176.234024,89.909607 
	C176.398071,76.992424 177.242615,64.083885 177.800446,51.171703 
z"/>
<path fill="#8901FF" opacity="1.000000" stroke="none" 
	d="
M177.383850,51.113186 
	C177.242615,64.083885 176.398071,76.992424 176.234024,89.909607 
	C176.134933,97.711708 177.386002,105.523239 177.491791,113.337830 
	C177.596161,121.047913 176.792587,128.767776 176.812500,136.482254 
	C176.831055,143.661102 177.443130,150.837158 177.726822,158.017120 
	C177.858047,161.338577 177.829697,164.666336 177.655029,168.618134 
	C177.262344,169.754944 177.088333,170.264832 176.914322,170.774734 
	C176.272736,169.456528 175.081451,168.142044 175.072510,166.819550 
	C174.949844,148.693039 174.990646,130.565399 174.990631,112.438042 
	C174.990631,93.312851 174.950333,74.187393 175.074661,55.063015 
	C175.083374,53.722855 176.308029,52.390598 177.383850,51.113186 
z"/>
<path fill="#9C0EFF" opacity="1.000000" stroke="none" 
	d="
M280.902222,79.731079 
	C283.136841,79.731667 284.918304,79.731667 286.886810,79.731667 
	C286.886810,81.820885 286.886810,83.433167 286.886810,85.328407 
	C284.632263,85.513519 282.528442,85.686249 279.826630,85.908081 
	C279.826630,92.159958 279.826630,98.378174 279.826630,104.797836 
	C277.312225,104.797836 275.402710,104.797836 273.238831,104.797836 
	C273.238831,96.560303 273.238831,88.491280 273.238831,79.730499 
	C275.632690,79.730499 278.040894,79.730499 280.902222,79.731079 
z"/>
<path fill="#BD08FF" opacity="1.000000" stroke="none" 
	d="
M430.201233,79.737366 
	C432.272797,79.737831 433.924896,79.737831 436.588806,79.737831 
	C433.298615,88.235573 432.942902,96.410225 436.577850,104.795502 
	C432.498749,104.795502 429.375641,104.795502 425.875519,104.795502 
	C425.734619,103.800056 425.118256,102.506020 425.503357,101.677391 
	C428.323792,95.608391 428.336182,89.751068 425.635559,83.533257 
	C424.070465,79.929832 426.991608,79.501900 430.201233,79.737366 
z"/>
<path fill="#A50FFF" opacity="1.000000" stroke="none" 
	d="
M301.499451,104.648315 
	C301.139191,102.900642 301.139191,101.425583 301.139191,99.680756 
	C303.713318,99.479843 306.135681,99.290764 309.009888,99.066429 
	C309.009888,92.652443 309.009888,86.409515 309.009888,79.962410 
	C311.410492,79.962410 313.339600,79.962410 315.820648,79.962410 
	C315.820648,86.618217 316.300110,93.100403 315.545868,99.435707 
	C315.300537,101.496605 312.115417,103.888412 309.757385,104.822411 
	C307.470581,105.728180 304.519226,104.956123 301.499451,104.648315 
z"/>
<path fill="#8901FF" opacity="1.000000" stroke="none" 
	d="
M218.978302,104.529938 
	C219.346176,99.552711 220.416809,94.882126 220.506439,90.192795 
	C220.567276,87.010025 219.251526,83.800949 218.461578,80.193466 
	C222.010178,80.193466 225.239349,80.193466 229.403503,80.193466 
	C226.274185,88.332008 226.005920,96.470970 229.629242,104.828590 
	C225.522873,104.828590 222.393066,104.828590 218.978302,104.529938 
z"/>
<path fill="#171717" opacity="1.000000" stroke="none" 
	d="
M37.244667,92.628845 
	C47.254230,95.701653 57.263798,98.774467 67.459274,102.225372 
	C67.312927,102.792419 66.980652,102.981369 66.648384,103.170319 
	C64.556816,102.693184 62.465244,102.216042 59.814034,101.540375 
	C58.607082,101.610970 57.959770,101.880089 57.312458,102.149216 
	C57.567364,109.289131 58.237682,116.446609 57.936695,123.563011 
	C57.722446,128.628830 58.870880,132.172775 63.706429,134.206940 
	C65.058601,134.775757 66.221878,135.793610 67.587227,137.073761 
	C67.392876,137.732269 67.083107,137.922470 66.773331,138.112686 
	C63.839371,136.295700 60.679562,134.746460 58.069839,132.545074 
	C56.825993,131.495865 56.111481,129.225815 56.045994,127.475525 
	C55.761105,119.861511 55.643127,112.231926 55.801590,104.615013 
	C55.869335,101.358597 54.638054,99.824707 51.620384,99.069107 
	C46.529377,97.794388 41.490204,96.312454 36.434612,94.898422 
	C36.357407,94.876823 36.276470,94.579285 36.323570,94.460670 
	C36.433094,94.184830 36.619892,93.939674 36.944313,93.314667 
	C37.113247,92.947258 37.244663,92.628853 37.244667,92.628845 
z"/>
<path fill="#9512FF" opacity="1.000000" stroke="none" 
	d="
M243.208084,97.021179 
	C243.208084,99.487839 243.208084,101.954491 243.208084,104.725548 
	C240.883362,104.725548 238.972351,104.725548 236.713684,104.725548 
	C236.713684,96.683174 236.713684,88.618889 236.713684,79.784271 
	C238.482666,79.784271 240.391556,79.784271 242.657410,80.363144 
	C243.078949,86.301735 243.143509,91.661461 243.208084,97.021179 
z"/>
<path fill="#CB11FF" opacity="1.000000" stroke="none" 
	d="
M444.626984,79.841446 
	C446.500702,79.748535 447.975494,79.748535 449.747620,79.748535 
	C449.747620,88.124954 449.747620,96.201004 449.747620,104.655540 
	C447.925537,104.655540 446.032471,104.655540 442.956787,104.655540 
	C443.377594,96.472359 443.802826,88.203354 444.626984,79.841446 
z"/>
<path fill="#B213FF" opacity="1.000000" stroke="none" 
	d="
M362.016602,104.763611 
	C356.237671,105.106628 354.083496,103.188515 354.049774,97.569618 
	C354.015076,91.788208 354.042053,86.006439 354.042053,79.967278 
	C356.349609,79.967278 358.275299,79.967278 361.250671,79.967278 
	C361.250671,86.658974 361.250671,93.209572 361.636475,100.375465 
	C362.020386,102.248375 362.018494,103.505997 362.016602,104.763611 
z"/>
<path fill="#A50FFF" opacity="1.000000" stroke="none" 
	d="
M300.016022,81.600082 
	C300.027344,89.612968 300.027344,97.189720 300.027344,105.181244 
	C295.772064,104.539299 293.410919,102.677254 293.321259,98.804489 
	C293.179565,92.686592 293.283539,86.563004 293.283539,79.230537 
	C295.882141,79.978058 297.943420,80.571014 300.016022,81.600082 
z"/>
<path fill="#D807FF" opacity="1.000000" stroke="none" 
	d="
M540.238770,98.035500 
	C540.137573,100.167976 540.036377,102.300453 539.921753,104.715294 
	C538.027710,104.715294 536.268799,104.715294 533.764160,104.715294 
	C533.764160,97.951836 533.432129,91.046837 534.011841,84.219254 
	C534.146545,82.633354 537.387756,81.311241 539.606567,80.405907 
	C540.088562,86.641205 540.163635,92.338356 540.238770,98.035500 
z"/>
<path fill="#A904FF" opacity="1.000000" stroke="none" 
	d="
M330.449371,98.106552 
	C330.328094,100.230515 330.206848,102.354485 330.070801,104.737488 
	C328.168152,104.737488 326.402710,104.737488 323.921173,104.737488 
	C323.921173,97.997383 323.590912,91.100952 324.164856,84.280624 
	C324.300018,82.674446 327.483765,81.324814 329.685425,80.385506 
	C330.220276,86.644753 330.334839,92.375648 330.449371,98.106552 
z"/>
<path fill="#212121" opacity="1.000000" stroke="none" 
	d="
M141.766083,83.242599 
	C142.460754,82.650742 143.155411,82.058876 144.149368,81.212013 
	C130.252945,78.000618 116.706078,74.870003 103.322418,71.330048 
	C103.658386,70.875038 103.831131,70.829369 104.003883,70.783699 
	C108.414261,71.345375 112.886810,71.613052 117.222076,72.529892 
	C126.265190,74.442383 135.241547,76.673866 144.229874,78.838509 
	C145.573288,79.162048 146.832947,79.833290 149.397705,80.841476 
	C146.465057,82.646187 144.600128,83.793839 142.326263,84.548500 
	C141.866928,83.851204 141.816513,83.546898 141.766083,83.242599 
z"/>
<path fill="#212121" opacity="1.000000" stroke="none" 
	d="
M85.987411,72.911385 
	C70.973083,80.407059 55.889271,87.721466 39.247070,90.952934 
	C54.112411,84.601875 68.977753,78.250824 84.485542,71.971260 
	C85.414467,72.332298 85.700935,72.621841 85.987411,72.911385 
z"/>
<path fill="#F15B48" opacity="1.000000" stroke="none" 
	d="
M219.667786,132.196259 
	C220.043228,135.640274 220.043228,139.195786 220.043228,142.968048 
	C217.242554,142.968048 215.211655,142.968048 212.798920,142.968048 
	C212.211578,139.437729 211.623383,135.902222 211.136780,132.977386 
	C214.064636,132.737000 216.678497,132.522385 219.667786,132.196259 
z"/>
<path fill="#171717" opacity="1.000000" stroke="none" 
	d="
M129.777420,99.022415 
	C129.591492,108.950806 129.456589,118.880569 129.188705,128.806747 
	C129.107803,131.804382 123.233864,136.422958 118.785431,137.047928 
	C118.535362,137.035416 118.595612,136.997482 118.595612,136.997482 
	C124.823692,132.896912 127.915634,127.517746 127.339294,119.675484 
	C126.859222,113.142998 127.701881,106.513313 128.317719,99.462891 
	C129.043640,99.006874 129.410522,99.014641 129.777420,99.022415 
z"/>
<path fill="#212121" opacity="1.000000" stroke="none" 
	d="
M121.015633,84.841125 
	C116.530251,84.647141 112.006050,84.016190 107.572868,84.409897 
	C104.522072,84.680847 101.637787,86.516861 98.598770,87.365898 
	C97.159386,87.768044 95.409096,87.842819 94.050728,87.359818 
	C93.513329,87.168739 93.135399,84.761711 93.626083,83.898964 
	C94.224609,82.846611 95.835899,81.694557 96.971329,81.732040 
	C104.810913,81.990845 112.640625,82.548531 120.797607,83.514145 
	C121.086334,84.292458 121.050980,84.566795 121.015633,84.841125 
z"/>
<path fill="#ECC9FF" opacity="1.000000" stroke="none" 
	d="
M330.568909,98.131233 
	C330.334839,92.375648 330.220276,86.644753 330.076447,80.444809 
	C330.047150,79.975761 330.519958,79.944237 330.755524,79.969696 
	C330.991089,81.472000 330.991089,82.948845 330.991089,84.937332 
	C332.704193,85.043266 334.304291,85.294548 335.885315,85.205803 
	C338.541077,85.056717 339.777710,85.902206 339.810455,88.819969 
	C339.844604,91.865128 338.744324,93.136459 335.751007,92.760056 
	C332.420715,92.341270 330.128723,93.060265 330.899170,97.605850 
	C330.909882,98.053291 330.688416,98.155914 330.568909,98.131233 
z"/>
<path fill="#2A2A2A" opacity="1.000000" stroke="none" 
	d="
M66.915749,103.433487 
	C66.980652,102.981369 67.312927,102.792419 67.807281,102.366333 
	C77.347145,105.566498 86.690010,109.105080 96.130936,112.359192 
	C98.117577,113.043961 100.464218,112.684288 102.786438,112.669182 
	C103.075005,112.654739 103.222115,112.776993 103.369217,112.899246 
	C101.538841,117.256393 98.416229,115.719261 95.448509,114.584442 
	C86.017860,110.978325 76.603668,107.329178 66.915749,103.433487 
z"/>
<path fill="#FAAE62" opacity="1.000000" stroke="none" 
	d="
M404.011536,131.918243 
	C407.462372,133.265060 409.425995,138.103470 407.385529,141.185440 
	C406.322388,142.791321 403.385468,143.156693 400.750641,144.323410 
	C400.750641,139.998978 400.512970,137.172958 400.881409,134.428299 
	C401.007935,133.485794 402.649597,132.746704 404.011536,131.918243 
z"/>
<path fill="#F4754F" opacity="1.000000" stroke="none" 
	d="
M264.317139,132.762939 
	C264.780914,134.545273 265.043915,136.008743 265.060028,137.474945 
	C265.126892,143.558411 264.733124,143.856888 258.301208,142.825150 
	C258.301208,139.446381 258.301208,136.037933 258.301208,131.993652 
	C260.278656,132.150314 262.140747,132.297836 264.317139,132.762939 
z"/>
<path fill="#F4754F" opacity="1.000000" stroke="none" 
	d="
M309.913391,139.904907 
	C308.549561,141.026306 307.185760,142.147720 305.335205,143.669373 
	C305.335205,139.475281 305.335205,135.847916 305.335205,131.363434 
	C306.974487,132.548309 308.050629,133.326141 309.050995,134.049225 
	C310.133209,133.285751 311.214508,132.522934 312.902893,131.331833 
	C312.902893,135.763306 312.902893,139.304825 312.902893,142.846359 
	C312.601105,143.017044 312.299316,143.187729 311.997528,143.358414 
	C311.539215,142.593597 311.080902,141.828781 310.689850,140.545532 
	C310.664764,139.731293 310.572388,139.435471 310.480011,139.139648 
	C310.291138,139.394745 310.102264,139.649826 309.913391,139.904907 
z"/>
<path fill="#FBDEFF" opacity="1.000000" stroke="none" 
	d="
M540.468079,98.022575 
	C540.163635,92.338356 540.088562,86.641205 539.995544,80.477066 
	C540.163879,80.011574 540.350159,80.013069 540.815552,80.029724 
	C541.094604,81.526642 541.094604,83.008392 541.094604,84.996506 
	C543.722412,85.185143 546.124329,85.357567 548.853638,85.553490 
	C548.853638,87.834480 548.853638,89.900078 548.853638,91.933052 
	C546.584351,94.205170 540.036377,89.855209 541.117737,97.491364 
	C541.148865,97.924629 540.697449,98.009651 540.468079,98.022575 
z"/>
<path fill="#F78D49" opacity="1.000000" stroke="none" 
	d="
M395.719849,137.806427 
	C395.719757,139.694122 395.719757,141.159073 395.719757,142.666595 
	C393.320557,142.666595 391.297058,142.666595 388.987122,142.666595 
	C388.987122,139.459229 388.987122,135.909851 388.987122,131.314713 
	C390.625885,132.554077 391.737122,133.394485 391.744995,133.400436 
	C392.364716,132.475586 392.981995,131.554428 393.599243,130.633255 
	C394.306122,131.161591 395.013031,131.689911 395.719910,132.218231 
	C395.719910,133.940048 395.719910,135.661850 395.719849,137.806427 
z"/>
<path fill="#F4754F" opacity="1.000000" stroke="none" 
	d="
M279.000977,143.349548 
	C277.888672,142.555603 276.637451,141.815201 276.555389,140.962280 
	C276.290741,138.212250 276.456757,135.420776 276.456757,130.961044 
	C279.114838,132.377838 281.033661,133.400589 282.952454,134.423340 
	C281.272705,137.202438 286.162567,142.597488 279.000977,143.349548 
z"/>
<path fill="#F4754F" opacity="1.000000" stroke="none" 
	d="
M238.850433,140.295410 
	C238.345718,141.599594 237.887802,142.536911 237.429871,143.474228 
	C237.056747,143.330002 236.683640,143.185776 236.310516,143.041550 
	C236.310516,139.610840 236.310516,136.180115 236.310516,132.727844 
	C242.235641,131.087601 243.092026,131.860443 242.538376,138.077560 
	C242.399017,139.642456 242.742599,141.250336 242.864243,142.838470 
	C242.437881,143.046738 242.011536,143.254990 241.585190,143.463257 
	C240.919312,142.172531 240.256531,140.880173 239.576553,139.596909 
	C239.548691,139.544296 239.332169,139.531937 239.251282,139.580444 
	C239.113297,139.663208 239.013214,139.809174 238.850433,140.295410 
z"/>
<path fill="#F4754F" opacity="1.000000" stroke="none" 
	d="
M324.490845,133.719055 
	C324.694122,136.081726 324.865479,138.062347 324.747528,140.025604 
	C324.528351,143.673203 320.927368,144.458298 319.719360,142.764099 
	C318.116302,140.515778 317.664612,136.547058 318.408203,133.770096 
	C319.200623,130.810669 322.144928,131.362900 324.490845,133.719055 
z"/>
<path fill="#F78D49" opacity="1.000000" stroke="none" 
	d="
M447.005432,137.259247 
	C447.005035,135.400452 447.005035,133.955521 447.005035,132.515793 
	C453.005127,131.588348 453.576660,132.101456 453.080292,137.591202 
	C452.924591,139.313324 453.055969,141.061417 453.055969,143.015015 
	C451.185150,143.015015 449.274353,143.015015 447.005859,143.015015 
	C447.005859,141.196136 447.005859,139.434616 447.005432,137.259247 
z"/>
<path fill="#F15B48" opacity="1.000000" stroke="none" 
	d="
M205.338043,142.960632 
	C203.373932,142.621506 200.470825,142.288635 200.385330,141.603943 
	C200.028946,138.749680 200.349792,135.758987 200.863022,132.897385 
	C200.951859,132.402054 203.231812,131.926376 204.388519,132.116821 
	C205.275864,132.262924 206.674988,133.488358 206.657730,134.205170 
	C206.588593,137.077866 206.056076,139.939407 205.338043,142.960632 
z"/>
<path fill="#F78D49" opacity="1.000000" stroke="none" 
	d="
M363.219910,141.146240 
	C363.127136,138.934555 363.046326,137.118225 363.119965,135.308182 
	C363.270691,131.602402 367.076904,130.857483 368.068024,132.437180 
	C369.627747,134.923050 370.139984,139.005280 369.239166,141.816803 
	C368.430237,144.341537 365.237732,144.068207 363.219910,141.146240 
z"/>
<path fill="#0E0E0E" opacity="1.000000" stroke="none" 
	d="
M121.404755,84.920364 
	C121.050980,84.566795 121.086334,84.292458 121.195129,83.609756 
	C127.833191,83.311378 134.397812,83.421364 141.364258,83.386978 
	C141.816513,83.546898 141.866928,83.851204 141.974533,84.614639 
	C141.615936,91.240997 141.200165,97.408226 140.784378,103.575455 
	C140.408905,103.575615 140.033432,103.575775 139.657959,103.575935 
	C139.657959,98.338661 139.657959,93.101387 139.657959,87.227661 
	C138.366943,87.871956 137.614029,88.247711 136.487228,88.301544 
	C135.046417,87.333687 133.979492,86.687744 132.912567,86.041801 
	C129.206345,85.694405 125.500114,85.347000 121.404755,84.920364 
z"/>
<path fill="#F78D49" opacity="1.000000" stroke="none" 
	d="
M355.473419,143.130219 
	C352.567719,144.095215 350.647675,144.691422 351.634399,140.477646 
	C352.217407,137.987900 351.740997,135.250092 351.740997,132.330017 
	C354.009979,132.330017 356.165039,132.330017 357.872833,132.330017 
	C358.026764,135.327118 358.356934,138.151779 358.195892,140.948166 
	C358.151001,141.727570 356.653595,142.423340 355.473419,143.130219 
M355.088318,135.495773 
	C355.223755,134.979935 355.359192,134.464096 355.494629,133.948273 
	C355.233551,133.887680 354.972473,133.827072 354.711395,133.766479 
	C354.615204,134.430481 354.519012,135.094498 355.088318,135.495773 
z"/>
<path fill="#FAAE62" opacity="1.000000" stroke="none" 
	d="
M480.399689,143.322021 
	C478.741608,142.744431 476.347046,142.139603 476.294434,141.373871 
	C476.096497,138.492386 476.505280,135.524551 477.122559,132.683746 
	C477.207306,132.293762 479.855255,132.097870 481.104645,132.488937 
	C481.663574,132.663895 482.003815,134.539124 481.911102,135.596024 
	C481.686737,138.152267 481.149536,140.681046 480.399689,143.322021 
z"/>
<path fill="#FAAE62" opacity="1.000000" stroke="none" 
	d="
M424.699127,139.545670 
	C424.587311,137.604919 423.853424,135.905518 424.193207,134.458130 
	C424.432129,133.440262 426.052460,132.273849 427.203552,132.088013 
	C428.176147,131.930969 430.149231,132.928085 430.304413,133.693268 
	C430.775604,136.016663 430.970428,138.559967 430.474365,140.844208 
	C430.237885,141.933228 428.194275,142.629791 426.969208,143.504120 
	C426.158081,142.300980 425.346924,141.097824 424.699127,139.545670 
z"/>
<path fill="#FBDEFF" opacity="1.000000" stroke="none" 
	d="
M243.540741,96.965500 
	C243.143509,91.661461 243.078949,86.301735 242.998306,80.475418 
	C243.164780,80.012253 243.347336,80.015686 243.803558,80.029678 
	C244.077225,81.514725 244.077225,82.989212 244.077225,85.059380 
	C246.878860,85.220665 249.565216,85.375305 252.543884,85.546783 
	C252.543884,87.366356 252.543884,88.908867 252.543884,90.875404 
	C249.913223,90.875404 247.350052,90.875404 244.253082,90.875404 
	C244.253082,92.828751 244.253082,94.373253 244.386963,96.319046 
	C244.305038,96.783493 244.089233,96.846664 243.540741,96.965500 
z"/>
<path fill="#F78D49" opacity="1.000000" stroke="none" 
	d="
M334.606384,136.884521 
	C336.359009,141.433258 335.303131,143.885956 332.075653,143.209839 
	C331.013275,142.987289 329.308136,140.793640 329.464722,140.562271 
	C331.250702,137.923111 326.368408,133.519379 331.621399,132.086380 
	C332.650940,131.805542 334.489136,132.373428 335.058105,133.181183 
	C335.523529,133.841965 334.654053,135.443024 334.606384,136.884521 
z"/>
<path fill="#FAAE62" opacity="1.000000" stroke="none" 
	d="
M419.124573,136.447968 
	C419.110962,138.190186 419.596252,139.869049 418.966675,140.761200 
	C418.112305,141.971909 416.381348,143.266357 415.070435,143.222015 
	C414.088013,143.188797 412.501373,141.169250 412.371582,139.911484 
	C412.101227,137.292313 412.618195,134.591873 412.811615,131.924835 
	C413.428833,131.997467 414.046051,132.070084 414.663300,132.142715 
	C414.806030,134.983032 414.948792,137.823334 415.091522,140.663651 
	C415.566437,140.689087 416.041351,140.714523 416.516235,140.739960 
	C416.682617,137.906860 416.848999,135.073761 417.015381,132.240662 
	C417.515045,132.130905 418.014709,132.021133 418.514343,131.911377 
	C418.718475,133.285599 418.922577,134.659836 419.124573,136.447968 
z"/>
<path fill="#F15B48" opacity="1.000000" stroke="none" 
	d="
M195.163666,133.591431 
	C194.453430,135.755295 193.675247,137.597610 192.736740,139.354309 
	C192.005295,140.723434 191.074402,141.986023 189.436920,144.532745 
	C189.436920,139.770126 189.436920,136.243057 189.436920,131.819061 
	C191.047302,132.226410 193.036972,132.729706 195.163666,133.591431 
z"/>
<path fill="#F78D49" opacity="1.000000" stroke="none" 
	d="
M343.960449,131.989410 
	C345.463226,135.533890 346.545380,139.064392 347.627533,142.594879 
	C347.232941,142.807526 346.838379,143.020187 346.443787,143.232834 
	C345.639221,142.533554 344.834656,141.834290 343.802002,140.936752 
	C342.822662,141.721008 341.794128,142.544662 340.765564,143.368332 
	C341.911499,139.478012 339.435150,134.833878 343.960449,131.989410 
z"/>
<path fill="#2A2A2A" opacity="1.000000" stroke="none" 
	d="
M66.969841,138.398743 
	C67.083107,137.922470 67.392876,137.732269 67.836739,137.302856 
	C75.686394,141.258682 83.597473,144.799744 92.639435,144.668900 
	C83.115135,147.196320 75.059441,143.300308 66.969841,138.398743 
z"/>
<path fill="#FAAE62" opacity="1.000000" stroke="none" 
	d="
M471.169312,133.764923 
	C470.058990,134.171341 469.147095,134.324387 467.532654,134.595322 
	C468.897247,135.789047 469.776031,136.557800 470.903534,137.544128 
	C469.907227,138.331970 469.064514,138.998352 467.835907,139.969894 
	C469.190186,140.627823 470.334991,141.183990 471.479797,141.740143 
	C471.474609,142.120239 471.469421,142.500336 471.464264,142.880417 
	C469.626648,143.084030 467.789062,143.287628 465.635498,143.526245 
	C465.635498,139.460403 465.635498,136.042511 465.635498,131.467163 
	C467.777832,132.231216 469.572784,132.871384 471.169312,133.764923 
z"/>
<path fill="#A904FF" opacity="1.000000" stroke="none" 
	d="
M362.468903,104.864655 
	C362.018494,103.505997 362.020386,102.248375 362.019531,100.613533 
	C365.799072,100.236305 369.581329,100.236305 373.733459,100.236305 
	C373.816681,101.653320 373.898041,103.039001 374.011169,104.965698 
	C370.116058,104.965698 366.518616,104.965698 362.468903,104.864655 
z"/>
<path fill="#F15B48" opacity="1.000000" stroke="none" 
	d="
M228.627991,134.225998 
	C228.919189,135.424683 229.526276,136.525162 230.273270,137.879257 
	C229.720840,138.279190 228.863708,138.899734 227.494781,139.890808 
	C229.042297,140.629562 230.179810,141.172577 231.317322,141.715607 
	C231.353531,142.040024 231.389740,142.364456 231.425964,142.688873 
	C229.630051,142.911499 227.834152,143.134109 225.775513,143.389297 
	C225.775513,139.407425 225.775513,135.999435 225.775513,132.314880 
	C227.614807,132.314880 229.434174,132.314880 231.253540,132.314880 
	C231.328613,132.666824 231.403687,133.018784 231.478760,133.370728 
	C230.633789,133.623077 229.788834,133.875443 228.627991,134.225998 
z"/>
<path fill="#F15B48" opacity="1.000000" stroke="none" 
	d="
M247.925995,137.066742 
	C247.925735,135.236023 247.925735,133.801804 247.925735,131.966263 
	C249.847015,132.050430 251.639816,132.128983 253.432617,132.207520 
	C253.471207,132.584915 253.509781,132.962296 253.548370,133.339691 
	C252.375717,133.814102 251.203064,134.288498 249.603577,134.935577 
	C250.778519,135.929474 251.678192,136.690536 252.750626,137.597733 
	C251.728699,138.311874 250.856125,138.921646 249.444611,139.908020 
	C251.057938,140.659271 252.198456,141.190353 253.338959,141.721436 
	C253.370667,142.047287 253.402359,142.373154 253.434067,142.699005 
	C251.639755,142.911194 249.845444,143.123367 247.926270,143.350311 
	C247.926270,141.016434 247.926270,139.239838 247.925995,137.066742 
z"/>
<path fill="#FAAE62" opacity="1.000000" stroke="none" 
	d="
M440.560028,134.891357 
	C440.138672,137.152176 440.155914,139.141541 439.863678,141.084366 
	C439.729584,141.975906 438.987701,142.776016 437.975311,144.603302 
	C437.123138,139.656265 436.516479,136.134583 435.801086,131.981567 
	C436.976044,131.981567 438.723724,131.873993 440.427734,132.098358 
	C440.681305,132.131744 440.729156,133.727768 440.560028,134.891357 
z"/>
<path fill="#9C0EFF" opacity="1.000000" stroke="none" 
	d="
M265.536255,82.247910 
	C267.346375,80.904381 269.152283,79.938408 271.739838,78.554352 
	C271.739838,81.736153 271.739838,83.430801 271.739838,85.571152 
	C269.326538,84.832657 265.649963,88.015938 265.536255,82.247910 
z"/>
<path fill="#F4754F" opacity="1.000000" stroke="none" 
	d="
M293.025513,135.394424 
	C292.427002,138.143112 291.940308,140.518555 291.453583,142.894012 
	C291.073792,143.049118 290.694000,143.204208 290.314209,143.359314 
	C289.322937,139.714966 288.331665,136.070618 287.340393,132.426270 
	C287.872131,131.970428 288.403870,131.514572 288.935608,131.058731 
	C289.593719,132.037384 290.251862,133.016022 290.935760,134.032990 
	C291.229248,133.698746 292.007446,132.812485 292.785675,131.926239 
	C293.069855,132.031967 293.354034,132.137680 293.638214,132.243408 
	C293.471222,133.169327 293.304260,134.095261 293.025513,135.394424 
z"/>
<path fill="#2A2A2A" opacity="1.000000" stroke="none" 
	d="
M133.258392,86.152985 
	C133.979492,86.687744 135.046417,87.333687 136.168442,88.432121 
	C133.803726,91.775887 128.784164,92.925056 129.870087,98.625015 
	C129.410522,99.014641 129.043640,99.006874 128.401550,99.006241 
	C127.641861,98.045395 127.157356,97.077415 126.243332,95.878448 
	C125.766434,95.429344 125.719055,95.211220 125.671669,94.993095 
	C128.447128,92.753365 131.254654,90.550583 133.946243,88.214226 
	C134.203018,87.991356 133.735504,86.934082 133.258392,86.152985 
z"/>
<path fill="#2A2A2A" opacity="1.000000" stroke="none" 
	d="
M86.374115,72.873215 
	C85.700935,72.621841 85.414467,72.332298 84.840843,71.924057 
	C89.428253,67.912682 95.044456,68.691452 101.034500,69.525757 
	C101.570366,70.177711 101.698021,70.557549 101.825668,70.937393 
	C96.804047,71.569946 91.782433,72.202499 86.374115,72.873215 
z"/>
<path fill="#FAAE62" opacity="1.000000" stroke="none" 
	d="
M459.030426,132.151520 
	C461.720123,135.591827 461.280914,141.908310 457.955597,143.551849 
	C458.184387,139.528976 458.391571,135.886765 459.030426,132.151520 
z"/>
<path fill="#FAAE62" opacity="1.000000" stroke="none" 
	d="
M381.159607,142.199463 
	C382.042328,138.626923 379.745300,134.699265 382.467285,131.955994 
	C382.977783,132.023132 383.488251,132.090256 383.998718,132.157394 
	C383.998718,135.408051 384.068634,138.662827 383.877625,141.902222 
	C383.860779,142.188553 382.140778,142.374481 381.159607,142.199463 
z"/>
<path fill="#212121" opacity="1.000000" stroke="none" 
	d="
M144.347260,149.930893 
	C144.024094,148.683090 144.029465,147.536743 144.353867,145.905426 
	C144.733780,144.642151 144.794662,143.863861 144.855530,143.085541 
	C145.294922,142.736664 145.734299,142.387772 146.463043,142.007858 
	C146.833450,144.694244 146.990860,147.413376 146.928818,150.127518 
	C146.916916,150.647919 146.041748,151.148590 145.564835,151.658356 
	C145.268478,151.116348 144.972122,150.574356 144.347260,149.930893 
z"/>
<path fill="#FBFBFB" opacity="1.000000" stroke="none" 
	d="
M103.096451,112.300308 
	C104.774673,110.632057 106.284340,109.195984 107.793999,107.759918 
	C108.270271,108.366440 108.746536,108.972969 109.222809,109.579491 
	C107.502342,110.707672 105.781876,111.835854 103.715317,112.931641 
	C103.222115,112.776993 103.075005,112.654739 103.096451,112.300308 
z"/>
<path fill="#FCFCFC" opacity="1.000000" stroke="none" 
	d="
M111.756683,141.930649 
	C110.288979,142.795166 108.912407,143.317383 107.535828,143.839615 
	C107.401955,143.089188 107.268074,142.338776 107.134193,141.588348 
	C108.705399,141.588348 110.276611,141.588348 111.756683,141.930649 
z"/>
<path fill="#212121" opacity="1.000000" stroke="none" 
	d="
M145.905838,124.688469 
	C145.448807,125.716713 145.063873,126.401199 144.315567,127.731834 
	C143.318192,126.023949 142.494308,124.613152 141.295776,122.560822 
	C143.219650,122.763275 144.136795,122.859787 145.393005,122.965675 
	C145.814026,123.431602 145.895981,123.888161 145.905838,124.688469 
z"/>
<path fill="#FCFCFC" opacity="1.000000" stroke="none" 
	d="
M99.018921,145.838593 
	C97.905869,145.301239 97.118576,144.811859 96.026253,144.132858 
	C100.024803,143.317047 100.165421,143.409103 99.018921,145.838593 
z"/>
<path fill="#FBFBFB" opacity="1.000000" stroke="none" 
	d="
M125.342438,95.046707 
	C125.719055,95.211220 125.766434,95.429344 125.875610,95.976524 
	C125.367287,97.182755 124.797157,98.059921 124.227036,98.937096 
	C123.766411,98.614967 123.305794,98.292847 122.845177,97.970726 
	C123.567856,97.013931 124.290535,96.057129 125.342438,95.046707 
z"/>
<path fill="#FCFCFC" opacity="1.000000" stroke="none" 
	d="
M118.245651,137.074982 
	C118.595612,136.997482 118.535362,137.035416 118.563301,137.016144 
	C117.644493,138.131409 116.697754,139.265945 115.751007,140.400482 
	C115.422188,140.028854 115.093369,139.657211 114.764549,139.285583 
	C115.808258,138.574554 116.851967,137.863525 118.245651,137.074982 
z"/>
<path fill="#FBFBFB" opacity="1.000000" stroke="none" 
	d="
M112.813293,106.814331 
	C112.253464,107.117844 111.755142,107.116959 111.256836,107.116074 
	C111.399048,106.564339 111.541260,106.012604 111.683472,105.460869 
	C112.080582,105.810562 112.477699,106.160248 112.813293,106.814331 
z"/>
<path fill="#0E0E0E" opacity="1.000000" stroke="none" 
	d="
M139.246796,108.104630 
	C139.202133,106.504364 139.371262,105.406776 139.540405,104.309196 
	C140.097229,104.472237 140.654053,104.635277 141.210876,104.798325 
	C140.627441,106.067986 140.044022,107.337654 139.246796,108.104630 
z"/>
<path fill="#FBFBFB" opacity="1.000000" stroke="none" 
	d="
M116.807816,103.198982 
	C116.480209,103.848862 116.086517,104.194885 115.692833,104.540916 
	C115.545593,103.991570 115.398346,103.442215 115.251099,102.892868 
	C115.747978,102.893623 116.244850,102.894379 116.807816,103.198982 
z"/>
<path fill="#FBFBFB" opacity="1.000000" stroke="none" 
	d="
M119.186584,100.184021 
	C119.745003,99.880699 120.241692,99.881111 120.738373,99.881523 
	C120.596458,100.432022 120.454544,100.982529 120.312637,101.533028 
	C119.916710,101.184601 119.520782,100.836182 119.186584,100.184021 
z"/>
<path fill="#FBFBFB" opacity="1.000000" stroke="none" 
	d="
M102.107300,70.958397 
	C101.698021,70.557549 101.570366,70.177711 101.436630,69.486526 
	C102.232567,69.483688 103.034599,69.792198 103.920258,70.442200 
	C103.831131,70.829369 103.658386,70.875038 103.219658,70.953781 
	C102.765427,70.984375 102.577179,70.981888 102.107300,70.958397 
z"/>
<path fill="#FCFCFC" opacity="1.000000" stroke="none" 
	d="
M57.901398,102.067017 
	C57.959770,101.880089 58.607082,101.610970 59.459167,101.567017 
	C59.272743,101.856392 58.881542,101.920601 57.901398,102.067017 
z"/>
<path fill="#FBFBFB" opacity="1.000000" stroke="none" 
	d="
M37.176277,92.389778 
	C37.244663,92.628853 37.113247,92.947258 36.941113,92.953003 
	C36.636257,92.553909 36.503532,92.149071 36.370811,91.744225 
	C36.616505,91.879723 36.862198,92.015213 37.176277,92.389778 
z"/>
<path fill="#BD08FF" opacity="1.000000" stroke="none" 
	d="
M177.176453,170.842773 
	C177.088333,170.264832 177.262344,169.754944 177.647186,169.071777 
	C177.897385,169.323761 177.936768,169.748978 177.973831,170.494263 
	C177.793884,170.846466 177.616241,170.878632 177.176453,170.842773 
z"/>
<path fill="#0E0E0E" opacity="1.000000" stroke="none" 
	d="
M136.911438,153.119766 
	C136.875885,153.108292 137.086349,153.175018 137.086349,153.175018 
	C137.086349,153.175018 136.956940,153.008621 136.968567,153.103409 
	C136.980194,153.198196 136.947006,153.131241 136.911438,153.119766 
z"/>
<path fill="#FAAE62" opacity="1.000000" stroke="none" 
	d="
M144.582642,143.206894 
	C144.794662,143.863861 144.733780,144.642151 144.419785,145.563477 
	C144.214355,144.913742 144.262039,144.120987 144.582642,143.206894 
z"/>
<path fill="#FFFEFF" opacity="1.000000" stroke="none" 
	d="
M310.053162,140.046417 
	C310.102264,139.649826 310.291138,139.394745 310.480011,139.139648 
	C310.572388,139.435471 310.664764,139.731293 310.627441,140.235321 
	C310.497772,140.443527 310.192932,140.187912 310.053162,140.046417 
z"/>
<path fill="#FFFEFF" opacity="1.000000" stroke="none" 
	d="
M354.755585,135.627136 
	C354.519012,135.094498 354.615204,134.430481 354.711395,133.766479 
	C354.972473,133.827072 355.233551,133.887680 355.494629,133.948273 
	C355.359192,134.464096 355.223755,134.979935 354.755585,135.627136 
z"/>
</svg>